<?xml version="1.0" encoding="utf-8"?>
<!-- Generator: Adobe Illustrator 25.4.1, SVG Export Plug-In . SVG Version: 6.00 Build 0)  -->
<svg version="1.1" id="Warstwa_1" xmlns="http://www.w3.org/2000/svg" xmlns:xlink="http://www.w3.org/1999/xlink" x="0px" y="0px"
	 viewBox="0 0 37.4 43.8" style="enable-background:new 0 0 37.4 43.8;" xml:space="preserve">
<style type="text/css">
	.st0{fill:#343434;}
	.st1{fill:#F6DC00;}
</style>
<g>
	<path class="st0" d="M0,15.8v18c0,2.8,1.1,5.3,3,7.1l0,0l0,0c1.8,1.8,4.3,3,7,3h9c2.8,0,5.3-1.2,7.1-3c1-1.1,1.8-2.2,2.3-3.6
		l0.1-0.2h3.4c1.5,0,2.9-0.6,3.8-1.6l0,0l0,0c1-1,1.6-2.3,1.6-3.8V27c0-1.5-0.6-2.9-1.6-3.9c-1-1-2.3-1.6-3.8-1.6h-2.9v-5.7
		c0-0.3-0.1-0.5-0.3-0.7c-0.2-0.2-0.4-0.3-0.7-0.3H1C0.4,14.8,0,15.2,0,15.8z M29,34.7c0-0.4,0.1-0.7,0.1-1v-9.9v-0.3h2.9
		c0.9,0,1.8,0.3,2.5,1c0.6,0.6,1.1,1.5,1.1,2.5v4.5c0,1-0.4,1.8-1.1,2.5c-0.6,0.6-1.5,1-2.5,1.1H29V34.7z M1.9,16.7h24.8H27v17.1
		c0,2.2-0.9,4.2-2.3,5.7c-1.5,1.5-3.5,2.3-5.7,2.3h-9c-2.2,0-4.2-0.9-5.6-2.3C2.9,38,1.9,36,1.9,33.8V16.7z"/>
	<g>
		<path class="st1" d="M8.2,0L8.2,0C8,0,7.3,0,6.6,0.3C6.2,0.5,5.8,0.8,5.4,1.2c-0.3,0.4-0.5,1-0.5,1.7c0,0.2,0,0.5,0.1,0.7
			c0.1,0.7,0.5,1.2,1,1.7c0.6,0.7,1.4,1.3,2,1.9c0.3,0.3,0.5,0.6,0.7,0.8c0.1,0.2,0.2,0.4,0.2,0.6c0,0.2-0.1,0.4-0.4,0.8
			c-0.3,0.4-0.9,0.8-1.9,1.3c-0.4,0.2-0.6,0.7-0.3,1.2c0.2,0.4,0.7,0.6,1.2,0.3c1.1-0.6,1.8-1.1,2.3-1.7c0.5-0.6,0.8-1.2,0.8-1.9
			c0-0.7-0.3-1.4-0.7-1.9c-0.6-0.8-1.4-1.4-2-2C7.4,4.4,7.1,4.1,7,3.9C6.8,3.6,6.7,3.4,6.6,3.3c0-0.2,0-0.3,0-0.4
			c0-0.3,0.1-0.5,0.2-0.6C6.9,2,7.2,1.9,7.5,1.8c0.3-0.1,0.6-0.1,0.6-0.1V1.5l0,0.2l0,0V1.5l0,0.2C8.6,1.7,9,1.3,9,0.9
			C9,0.4,8.7,0,8.2,0L8.2,0z"/>
		<path class="st1" d="M14.1,0L14.1,0c-0.2,0-0.9,0-1.6,0.3c-0.4,0.2-0.8,0.4-1.1,0.9c-0.3,0.4-0.5,1-0.5,1.7c0,0.2,0,0.5,0.1,0.7
			l0,0c0.1,0.7,0.5,1.2,1,1.7c0.6,0.7,1.4,1.3,2,1.9c0.3,0.3,0.5,0.6,0.7,0.8c0.1,0.2,0.2,0.4,0.2,0.6c0,0.2-0.1,0.4-0.4,0.8
			c-0.3,0.4-0.9,0.8-1.9,1.3c-0.4,0.2-0.6,0.7-0.3,1.2c0.2,0.4,0.7,0.6,1.2,0.3c1.1-0.6,1.8-1.1,2.3-1.7c0.5-0.6,0.8-1.2,0.8-1.9
			c0-0.7-0.3-1.4-0.7-1.9c-0.6-0.8-1.4-1.4-2-2c-0.3-0.3-0.6-0.6-0.8-0.8c-0.2-0.2-0.3-0.5-0.3-0.6l0,0c0-0.2,0-0.3,0-0.4
			c0-0.3,0.1-0.5,0.2-0.6c0.1-0.2,0.4-0.4,0.8-0.4c0.3-0.1,0.6-0.1,0.6-0.1V1.5l0,0.2l0,0V1.5l0,0.2c0.5,0,0.9-0.4,0.9-0.8
			C15,0.4,14.6,0,14.1,0L14.1,0z"/>
		<path class="st1" d="M20.4,0L20.4,0c-0.2,0-0.9,0-1.6,0.3c-0.4,0.2-0.8,0.4-1.1,0.9c-0.3,0.4-0.5,1-0.5,1.7c0,0.2,0,0.5,0.1,0.7
			l0,0c0.1,0.7,0.5,1.2,1,1.7c0.6,0.7,1.4,1.3,2,1.9c0.3,0.3,0.5,0.6,0.7,0.8C20.9,8.2,21,8.4,21,8.5c0,0.2-0.1,0.4-0.4,0.8
			c-0.3,0.4-0.9,0.8-1.9,1.3c-0.4,0.2-0.6,0.7-0.3,1.2c0.2,0.4,0.7,0.6,1.2,0.3c1.1-0.6,1.8-1.1,2.3-1.7c0.5-0.6,0.8-1.2,0.8-1.9
			c0-0.7-0.3-1.4-0.7-1.9c-0.6-0.8-1.4-1.4-2-2c-0.3-0.3-0.6-0.6-0.8-0.8c-0.2-0.2-0.3-0.5-0.3-0.6l0,0c0-0.2,0-0.3,0-0.4
			c0-0.3,0.1-0.5,0.2-0.6c0.1-0.2,0.4-0.4,0.8-0.4c0.3-0.1,0.6-0.1,0.6-0.1V1.5l0,0.2l0,0V1.5l0,0.2c0.5,0,0.9-0.4,0.9-0.8
			C21.2,0.4,20.8,0,20.4,0L20.4,0z"/>
	</g>
</g>
</svg>
