<?xml version="1.0" encoding="utf-8"?>
<!-- Generator: Adobe Illustrator 25.4.1, SVG Export Plug-In . SVG Version: 6.00 Build 0)  -->
<svg version="1.1" id="Warstwa_1" xmlns="http://www.w3.org/2000/svg" xmlns:xlink="http://www.w3.org/1999/xlink" x="0px" y="0px"
	 viewBox="0 0 137.9 30.1" style="enable-background:new 0 0 137.9 30.1;" xml:space="preserve">
<style type="text/css">
	.st0{fill:#AAAAAA;}
</style>
<g>
	<g>
		<path class="st0" d="M39.6,15.9v1.5l-2.4,0.1v-1.3c0-1.3-0.5-1.9-1.4-1.9c-0.9,0-1.4,0.6-1.4,1.7v8.9c0,1.1,0.5,1.7,1.4,1.7
			c0.9,0,1.4-0.6,1.4-1.9v-1.8l2.4,0.1v2c0,2.5-1.4,3.9-3.9,3.9c-2.4,0-3.8-1.4-3.8-3.9v-9c0-2.5,1.4-3.9,3.8-3.9
			C38.2,12,39.6,13.4,39.6,15.9z"/>
		<path class="st0" d="M45.1,21.7H44v6.9h-2.5V12.2h3.6c2.7,0,4.1,1.4,4.1,4.1v1.2c0,1.7-0.6,2.9-1.8,3.6l2.3,7.5h-2.6L45.1,21.7z
			 M44,19.4h1c1.2,0,1.7-0.6,1.7-2v-0.8c0-1.4-0.5-2-1.7-2h-1V19.4z"/>
		<path class="st0" d="M54,14.5v4.6h3.6v2.3H54v4.9h4.5v2.3h-7V12.2h7v2.3H54z"/>
		<path class="st0" d="M65.9,28.6l-0.5-3.7h-2.7l-0.5,3.7h-2.5l2.8-16.4h3.2l2.8,16.4H65.9z M63,22.6h2.1l-1-6.9H64L63,22.6z"/>
		<path class="st0" d="M73.4,14.6v14H71v-14h-2.6v-2.3h7.8v2.3H73.4z"/>
		<path class="st0" d="M80.1,14.5v4.6h3.6v2.3h-3.6v4.9h4.5v2.3h-7V12.2h7v2.3H80.1z"/>
		<path class="st0" d="M94.7,12.2c2.7,0,4.1,1.4,4.1,4.1v1.3c0,2.7-1.4,4.1-4.1,4.1h-1.1v6.8h-2.5V12.2H94.7z M93.6,19.5h1
			c1.2,0,1.7-0.6,1.7-2v-1c0-1.4-0.5-2-1.7-2h-1V19.5z"/>
		<path class="st0" d="M105.3,28.6l-0.5-3.7H102l-0.5,3.7H99l2.8-16.4h3.2l2.8,16.4H105.3z M102.4,22.6h2.1l-1-6.9h-0.1L102.4,22.6z
			"/>
		<path class="st0" d="M113.2,12.2c2.7,0,4.1,1.4,4.1,4.1v1.3c0,2.7-1.4,4.1-4.1,4.1h-1.1v6.8h-2.5V12.2H113.2z M112.1,19.5h1
			c1.2,0,1.7-0.6,1.7-2v-1c0-1.4-0.5-2-1.7-2h-1V19.5z"/>
		<path class="st0" d="M121.6,14.5v4.6h3.6v2.3h-3.6v4.9h4.5v2.3h-7V12.2h7v2.3H121.6z"/>
		<path class="st0" d="M131.6,21.7h-1.1v6.9H128V12.2h3.6c2.7,0,4.1,1.4,4.1,4.1v1.2c0,1.7-0.6,2.9-1.8,3.6l2.3,7.5h-2.6L131.6,21.7
			z M130.4,19.4h1c1.2,0,1.7-0.6,1.7-2v-0.8c0-1.4-0.5-2-1.7-2h-1V19.4z"/>
	</g>
</g>
<g>
	<polygon class="st0" points="21.6,19.9 22.6,19.9 22.6,0 1.2,0 1.2,29.1 14.2,29.1 22.6,20.3 22.6,19.9 21.6,19.9 20.8,19.2 
		13.4,27 3.2,27 3.2,2.1 20.5,2.1 20.5,19.9 21.6,19.9 20.8,19.2 	"/>
	<polygon class="st0" points="14.8,28 14.8,20.5 21.6,20.5 21.6,18.4 12.8,18.4 12.8,28 14.8,28 	"/>
</g>
</svg>
