<?xml version="1.0" encoding="utf-8"?>
<!-- Generator: Adobe Illustrator 25.4.1, SVG Export Plug-In . SVG Version: 6.00 Build 0)  -->
<svg version="1.1" id="Warstwa_1" xmlns="http://www.w3.org/2000/svg" xmlns:xlink="http://www.w3.org/1999/xlink" x="0px" y="0px"
	 viewBox="0 0 42.3 34.1" style="enable-background:new 0 0 42.3 34.1;" xml:space="preserve">
<style type="text/css">
	.st0{fill-rule:evenodd;clip-rule:evenodd;fill:#343434;}
</style>
<g>
	<path class="st0" d="M33.4,0.6H8.8c-2.3,0-4.1,1.8-4.1,4.1v24.6c0,2.3,1.8,4.1,4.1,4.1h24.6c2.3,0,4.1-1.8,4.1-4.1V4.7
		C37.5,2.5,35.7,0.6,33.4,0.6z M27.3,23.2H15V10.9h12.3V23.2z"/>
	<path id="Rectangle-3_1_" class="st0" d="M37.5,6.8h2.1c1.1,0,2.1,0.9,2.1,2.1l0,0c0,1.1-0.9,2.1-2.1,2.1h-2.1V6.8z"/>
	<path id="Rectangle-3-Copy-6_1_" class="st0" d="M37.5,15h2.1c1.1,0,2.1,0.9,2.1,2.1l0,0c0,1.1-0.9,2.1-2.1,2.1h-2.1V15z"/>
	<path id="Rectangle-3-Copy-7_1_" class="st0" d="M37.5,23.2h2.1c1.1,0,2.1,0.9,2.1,2.1l0,0c0,1.1-0.9,2.1-2.1,2.1h-2.1V23.2z"/>
	<path id="Rectangle-3-Copy-5_1_" class="st0" d="M2.7,6.8h2.1v4.1H2.7c-1.1,0-2.1-0.9-2.1-2.1l0,0C0.6,7.7,1.6,6.8,2.7,6.8z"/>
	<path id="Rectangle-3-Copy-8_1_" class="st0" d="M2.7,15h2.1v4.1H2.7c-1.1,0-2.1-0.9-2.1-2.1l0,0C0.6,15.9,1.6,15,2.7,15z"/>
	<path id="Rectangle-3-Copy-9_1_" class="st0" d="M2.7,23.2h2.1v4.1H2.7c-1.1,0-2.1-0.9-2.1-2.1l0,0C0.6,24.1,1.6,23.2,2.7,23.2z"/>
</g>
</svg>
