<?xml version="1.0" encoding="utf-8"?>
<!-- Generator: Adobe Illustrator 25.4.1, SVG Export Plug-In . SVG Version: 6.00 Build 0)  -->
<svg version="1.1" id="Warstwa_1" xmlns="http://www.w3.org/2000/svg" xmlns:xlink="http://www.w3.org/1999/xlink" x="0px" y="0px"
	 viewBox="0 0 147.5 44.7" style="enable-background:new 0 0 147.5 44.7;" xml:space="preserve">
<style type="text/css">
	.st0{fill:#AAAAAA;}
</style>
<g>
	<g>
		<path class="st0" d="M7.4,23c1.1,0,2.1,0.1,2.9,0.4c0.8,0.3,1.5,0.6,2,1.1c0.5,0.5,0.9,1,1.2,1.7s0.4,1.4,0.4,2.2
			c0,0.8-0.1,1.6-0.4,2.2s-0.7,1.3-1.2,1.8c-0.5,0.5-1.2,0.9-2,1.1C9.4,33.8,8.5,34,7.4,34H5v5.9H1.9V23H7.4z M7.4,31.5
			c0.6,0,1.1-0.1,1.5-0.2c0.4-0.1,0.8-0.3,1.1-0.6c0.3-0.3,0.5-0.6,0.6-1c0.1-0.4,0.2-0.8,0.2-1.3c0-0.5-0.1-0.9-0.2-1.2
			c-0.1-0.4-0.3-0.7-0.6-0.9c-0.3-0.3-0.6-0.5-1.1-0.6c-0.4-0.1-0.9-0.2-1.5-0.2H5v6.1H7.4z"/>
		<path class="st0" d="M20.2,27.7c0.9,0,1.7,0.1,2.4,0.4c0.7,0.3,1.4,0.7,1.9,1.2c0.5,0.5,0.9,1.2,1.2,1.9c0.3,0.8,0.4,1.6,0.4,2.6
			c0,1-0.1,1.8-0.4,2.6s-0.7,1.4-1.2,2s-1.1,0.9-1.9,1.2c-0.7,0.3-1.5,0.4-2.4,0.4c-0.9,0-1.7-0.1-2.4-0.4c-0.7-0.3-1.4-0.7-1.9-1.2
			c-0.5-0.5-0.9-1.2-1.2-2s-0.4-1.6-0.4-2.6c0-0.9,0.1-1.8,0.4-2.6c0.3-0.8,0.7-1.4,1.2-1.9c0.5-0.5,1.1-0.9,1.9-1.2
			C18.5,27.9,19.3,27.7,20.2,27.7z M20.2,37.9c1,0,1.7-0.3,2.2-1c0.5-0.7,0.7-1.7,0.7-2.9s-0.2-2.3-0.7-3c-0.5-0.7-1.2-1-2.2-1
			c-1,0-1.8,0.3-2.2,1c-0.5,0.7-0.7,1.7-0.7,2.9s0.2,2.3,0.7,2.9C18.4,37.5,19.2,37.9,20.2,37.9z"/>
		<path class="st0" d="M31.2,24.4c0,0.2-0.1,0.5-0.2,0.7c-0.1,0.2-0.2,0.4-0.4,0.6c-0.2,0.2-0.4,0.3-0.6,0.4s-0.5,0.1-0.7,0.1
			c-0.2,0-0.5,0-0.7-0.1c-0.2-0.1-0.4-0.2-0.6-0.4c-0.2-0.2-0.3-0.4-0.4-0.6c-0.1-0.2-0.1-0.5-0.1-0.7c0-0.3,0-0.5,0.1-0.7
			c0.1-0.2,0.2-0.4,0.4-0.6c0.2-0.2,0.4-0.3,0.6-0.4c0.2-0.1,0.5-0.1,0.7-0.1c0.3,0,0.5,0,0.7,0.1s0.4,0.2,0.6,0.4
			c0.2,0.2,0.3,0.4,0.4,0.6C31.2,23.9,31.2,24.2,31.2,24.4z M30.8,27.9v12h-2.9v-12H30.8z"/>
		<path class="st0" d="M36,29.4c0.2-0.2,0.5-0.5,0.8-0.7c0.3-0.2,0.6-0.4,0.9-0.5c0.3-0.1,0.6-0.3,1-0.3s0.7-0.1,1.1-0.1
			c0.7,0,1.2,0.1,1.7,0.3c0.5,0.2,0.9,0.5,1.3,0.9s0.6,0.9,0.8,1.4c0.2,0.6,0.3,1.2,0.3,1.8v7.6h-2.9v-7.6c0-0.7-0.2-1.3-0.5-1.7
			C40,30.2,39.5,30,38.8,30c-0.5,0-1,0.1-1.4,0.3c-0.4,0.2-0.8,0.5-1.2,0.9v8.7h-2.9v-12h1.8c0.4,0,0.6,0.2,0.7,0.5L36,29.4z"/>
		<path class="st0" d="M49.8,40.1c-1,0-1.8-0.3-2.4-0.9s-0.8-1.4-0.8-2.4v-6.7h-1.2c-0.2,0-0.3-0.1-0.4-0.2
			c-0.1-0.1-0.2-0.3-0.2-0.5v-1.1l1.9-0.3l0.6-3.3c0-0.2,0.1-0.3,0.2-0.4c0.1-0.1,0.2-0.1,0.4-0.1h1.5V28h3.2v2.1h-3.2v6.5
			c0,0.4,0.1,0.7,0.3,0.9c0.2,0.2,0.4,0.3,0.8,0.3c0.2,0,0.3,0,0.5-0.1c0.1,0,0.2-0.1,0.3-0.1c0.1,0,0.2-0.1,0.2-0.1
			s0.1-0.1,0.2-0.1c0.1,0,0.2,0,0.2,0.1c0.1,0,0.1,0.1,0.2,0.2L53,39c-0.4,0.3-0.9,0.6-1.4,0.8C51,40,50.4,40.1,49.8,40.1z"/>
		<path class="st0" d="M74.7,31.5c0,1.2-0.2,2.4-0.6,3.4c-0.4,1-1,1.9-1.7,2.7c-0.7,0.7-1.6,1.3-2.7,1.7c-1.1,0.4-2.2,0.6-3.5,0.6
			h-6.4V23h6.4c1.3,0,2.5,0.2,3.5,0.6c1.1,0.4,2,1,2.7,1.7c0.7,0.7,1.3,1.6,1.7,2.7C74.5,29.1,74.7,30.2,74.7,31.5z M71.5,31.5
			c0-0.9-0.1-1.8-0.4-2.5c-0.2-0.7-0.6-1.4-1.1-1.9s-1-0.9-1.7-1.2c-0.7-0.3-1.4-0.4-2.2-0.4h-3.3v11.9h3.3c0.8,0,1.6-0.1,2.2-0.4
			c0.7-0.3,1.2-0.7,1.7-1.2s0.8-1.1,1.1-1.9C71.4,33.2,71.5,32.4,71.5,31.5z"/>
		<path class="st0" d="M78.6,34.3c0,0.6,0.2,1.1,0.3,1.6s0.4,0.8,0.7,1.1s0.6,0.5,1,0.7c0.4,0.1,0.8,0.2,1.3,0.2
			c0.5,0,0.9-0.1,1.2-0.2c0.3-0.1,0.6-0.2,0.9-0.4c0.3-0.1,0.5-0.3,0.7-0.4c0.2-0.1,0.4-0.2,0.6-0.2c0.2,0,0.4,0.1,0.5,0.3l0.8,1.1
			c-0.3,0.4-0.7,0.7-1.1,0.9c-0.4,0.3-0.8,0.5-1.2,0.6c-0.4,0.2-0.9,0.3-1.3,0.3c-0.4,0.1-0.9,0.1-1.3,0.1c-0.8,0-1.6-0.1-2.3-0.4
			c-0.7-0.3-1.3-0.7-1.9-1.2s-0.9-1.2-1.2-2s-0.5-1.7-0.5-2.8c0-0.8,0.1-1.6,0.4-2.3s0.6-1.3,1.1-1.9c0.5-0.5,1.1-1,1.8-1.3
			c0.7-0.3,1.5-0.5,2.4-0.5c0.8,0,1.5,0.1,2.1,0.4c0.6,0.2,1.2,0.6,1.6,1.1c0.5,0.5,0.8,1,1.1,1.7s0.4,1.4,0.4,2.3
			c0,0.4,0,0.7-0.1,0.9s-0.3,0.2-0.5,0.2H78.6z M84.1,32.5c0-0.4-0.1-0.7-0.2-1.1c-0.1-0.3-0.3-0.6-0.5-0.9
			c-0.2-0.2-0.5-0.4-0.8-0.6c-0.3-0.1-0.7-0.2-1.1-0.2c-0.8,0-1.5,0.2-2,0.7c-0.5,0.5-0.8,1.1-0.9,2H84.1z"/>
		<path class="st0" d="M95.7,30.3c-0.1,0.1-0.2,0.2-0.2,0.3s-0.2,0.1-0.3,0.1c-0.1,0-0.3,0-0.4-0.1c-0.2-0.1-0.3-0.2-0.6-0.3
			C94,30.1,93.7,30,93.4,30c-0.3-0.1-0.6-0.1-1-0.1c-0.6,0-1,0.1-1.3,0.4c-0.3,0.2-0.5,0.6-0.5,0.9c0,0.3,0.1,0.5,0.3,0.6
			c0.2,0.2,0.4,0.3,0.7,0.5s0.6,0.2,0.9,0.4s0.7,0.2,1.1,0.3c0.4,0.1,0.7,0.3,1.1,0.4s0.7,0.4,0.9,0.6c0.3,0.2,0.5,0.5,0.7,0.9
			c0.2,0.3,0.3,0.8,0.3,1.2c0,0.6-0.1,1.1-0.3,1.6s-0.5,0.9-0.9,1.3c-0.4,0.4-0.9,0.6-1.5,0.8c-0.6,0.2-1.3,0.3-2.1,0.3
			c-0.4,0-0.8,0-1.2-0.1c-0.4-0.1-0.8-0.2-1.1-0.3c-0.4-0.1-0.7-0.3-1-0.5c-0.3-0.2-0.6-0.4-0.8-0.6l0.7-1.1
			c0.1-0.1,0.2-0.2,0.3-0.3s0.3-0.1,0.4-0.1c0.2,0,0.3,0.1,0.5,0.2c0.2,0.1,0.3,0.2,0.6,0.3s0.5,0.2,0.7,0.3
			c0.3,0.1,0.6,0.2,1.1,0.2c0.3,0,0.6,0,0.9-0.1c0.2-0.1,0.4-0.2,0.6-0.3c0.2-0.1,0.3-0.3,0.4-0.5c0.1-0.2,0.1-0.4,0.1-0.5
			c0-0.3-0.1-0.5-0.3-0.7c-0.2-0.2-0.4-0.3-0.7-0.5c-0.3-0.1-0.6-0.2-0.9-0.4s-0.7-0.2-1.1-0.3c-0.4-0.1-0.7-0.3-1.1-0.4
			c-0.4-0.2-0.7-0.4-0.9-0.6c-0.3-0.3-0.5-0.6-0.7-0.9c-0.2-0.4-0.3-0.8-0.3-1.4c0-0.5,0.1-1,0.3-1.4c0.2-0.4,0.5-0.8,0.9-1.2
			c0.4-0.3,0.8-0.6,1.4-0.8c0.6-0.2,1.2-0.3,2-0.3c0.8,0,1.6,0.1,2.3,0.4c0.7,0.3,1.2,0.6,1.7,1.1L95.7,30.3z"/>
		<path class="st0" d="M101.6,24.4c0,0.2-0.1,0.5-0.2,0.7c-0.1,0.2-0.2,0.4-0.4,0.6c-0.2,0.2-0.4,0.3-0.6,0.4s-0.5,0.1-0.7,0.1
			c-0.2,0-0.5,0-0.7-0.1c-0.2-0.1-0.4-0.2-0.6-0.4c-0.2-0.2-0.3-0.4-0.4-0.6c-0.1-0.2-0.1-0.5-0.1-0.7c0-0.3,0-0.5,0.1-0.7
			c0.1-0.2,0.2-0.4,0.4-0.6c0.2-0.2,0.4-0.3,0.6-0.4c0.2-0.1,0.5-0.1,0.7-0.1c0.3,0,0.5,0,0.7,0.1s0.4,0.2,0.6,0.4
			c0.2,0.2,0.3,0.4,0.4,0.6C101.6,23.9,101.6,24.2,101.6,24.4z M101.2,27.9v12h-2.9v-12H101.2z"/>
		<path class="st0" d="M114.2,28.3v1.1c0,0.3-0.2,0.6-0.6,0.6l-1.1,0.2c0.2,0.4,0.2,0.9,0.2,1.4c0,0.6-0.1,1.1-0.4,1.6
			s-0.6,0.9-1,1.2c-0.4,0.3-0.9,0.6-1.5,0.8s-1.2,0.3-1.9,0.3c-0.2,0-0.5,0-0.7,0s-0.4-0.1-0.6-0.1c-0.4,0.2-0.6,0.5-0.6,0.8
			c0,0.2,0.1,0.4,0.3,0.5c0.2,0.1,0.5,0.2,0.9,0.2s0.8,0.1,1.2,0.1c0.5,0,0.9,0,1.4,0.1c0.5,0,1,0.1,1.4,0.2
			c0.5,0.1,0.9,0.2,1.2,0.5c0.4,0.2,0.7,0.5,0.9,0.9c0.2,0.4,0.3,0.8,0.3,1.4c0,0.5-0.1,1-0.4,1.5c-0.3,0.5-0.6,0.9-1.1,1.3
			c-0.5,0.4-1.1,0.7-1.8,0.9c-0.7,0.2-1.5,0.4-2.5,0.4c-0.9,0-1.7-0.1-2.4-0.3s-1.2-0.4-1.7-0.7c-0.4-0.3-0.8-0.6-1-1
			c-0.2-0.4-0.3-0.8-0.3-1.2c0-0.6,0.2-1,0.5-1.4c0.3-0.4,0.8-0.7,1.4-0.9c-0.3-0.2-0.6-0.4-0.8-0.7c-0.2-0.3-0.3-0.6-0.3-1.1
			c0-0.2,0-0.4,0.1-0.6s0.2-0.4,0.3-0.6s0.3-0.4,0.5-0.5c0.2-0.2,0.4-0.3,0.7-0.4c-0.6-0.3-1.1-0.8-1.4-1.3s-0.5-1.2-0.5-1.9
			c0-0.6,0.1-1.1,0.4-1.6c0.2-0.5,0.6-0.9,1-1.2c0.4-0.3,0.9-0.6,1.5-0.8c0.6-0.2,1.2-0.3,1.9-0.3c0.5,0,1,0.1,1.4,0.2
			c0.5,0.1,0.9,0.3,1.2,0.5H114.2z M111.3,40.4c0-0.2-0.1-0.4-0.2-0.6c-0.1-0.1-0.3-0.3-0.6-0.3s-0.5-0.1-0.8-0.2s-0.7-0.1-1-0.1
			s-0.7,0-1.1-0.1s-0.8,0-1.1-0.1c-0.3,0.2-0.6,0.4-0.8,0.6c-0.2,0.2-0.3,0.5-0.3,0.8c0,0.2,0.1,0.4,0.2,0.6
			c0.1,0.2,0.3,0.3,0.5,0.5c0.2,0.1,0.5,0.2,0.9,0.3s0.8,0.1,1.3,0.1c0.5,0,1,0,1.4-0.1s0.7-0.2,1-0.3c0.3-0.1,0.4-0.3,0.6-0.5
			C111.3,40.9,111.3,40.7,111.3,40.4z M108.1,33.6c0.4,0,0.7,0,0.9-0.1s0.5-0.2,0.7-0.4c0.2-0.2,0.3-0.4,0.4-0.6
			c0.1-0.2,0.1-0.5,0.1-0.8c0-0.6-0.2-1.1-0.5-1.4s-0.9-0.5-1.6-0.5s-1.2,0.2-1.6,0.5s-0.5,0.8-0.5,1.4c0,0.3,0,0.5,0.1,0.8
			c0.1,0.2,0.2,0.5,0.4,0.6c0.2,0.2,0.4,0.3,0.7,0.4S107.7,33.6,108.1,33.6z"/>
		<path class="st0" d="M118.3,29.4c0.2-0.2,0.5-0.5,0.8-0.7c0.3-0.2,0.6-0.4,0.9-0.5c0.3-0.1,0.6-0.3,1-0.3s0.7-0.1,1.1-0.1
			c0.7,0,1.2,0.1,1.7,0.3c0.5,0.2,0.9,0.5,1.3,0.9s0.6,0.9,0.8,1.4c0.2,0.6,0.3,1.2,0.3,1.8v7.6h-2.9v-7.6c0-0.7-0.2-1.3-0.5-1.7
			c-0.3-0.4-0.8-0.6-1.5-0.6c-0.5,0-1,0.1-1.4,0.3c-0.4,0.2-0.8,0.5-1.2,0.9v8.7h-2.9v-12h1.8c0.4,0,0.6,0.2,0.7,0.5L118.3,29.4z"/>
	</g>
</g>
<path class="st0" d="M146.2,12.3c0-5.7-4.6-10.3-10.3-10.3c-5.7,0-10.3,4.6-10.3,10.2c0,0.1,0,0.3,0,0.5c0,0.9,0.2,2.9,1.5,5.8
	c1.3,2.9,3.7,6.6,8.2,11l1.6,1.6v-8.6C142.1,22.1,146.2,17.7,146.2,12.3z M135.9,20.7H135v5.8c-3.3-3.6-5.1-6.5-6.2-8.8
	c-1.2-2.6-1.3-4.3-1.3-5c0-0.1,0-0.2,0-0.3l0,0l0,0l0-0.1v-0.1c0-2.3,0.9-4.4,2.5-6c1.5-1.5,3.6-2.5,6-2.5c2.3,0,4.4,0.9,6,2.5
	c1.5,1.5,2.5,3.6,2.5,6c0,2.3-0.9,4.4-2.5,6C140.4,19.8,138.3,20.7,135.9,20.7z"/>
</svg>
