<?xml version="1.0" encoding="utf-8"?>
<!-- Generator: Adobe Illustrator 25.4.1, SVG Export Plug-In . SVG Version: 6.00 Build 0)  -->
<svg version="1.1" id="Warstwa_1" xmlns="http://www.w3.org/2000/svg" xmlns:xlink="http://www.w3.org/1999/xlink" x="0px" y="0px"
	 viewBox="0 0 34.5 44.7" style="enable-background:new 0 0 34.5 44.7;" xml:space="preserve">
<style type="text/css">
	.st0{fill:#343434;}
	.st1{fill:#F6DC00;}
</style>
<g>
	<path class="st0" d="M24.8,3.1C22.9,1.2,20.2,0,17.3,0c-2.9,0-5.6,1.2-7.5,3.1c-1.9,1.9-3.1,4.6-3.1,7.5c0,2.8,1.1,6,3,8.4l0,0
		c2.1,2.7,4.8,4.2,7.6,4.2c2.8,0,5.5-1.5,7.6-4.2l0,0c1.9-2.4,3-5.6,3-8.4C27.9,7.7,26.7,5.1,24.8,3.1z M8.7,9.5
		c0.6-4.2,4.2-7.4,8.5-7.4c4.1,0,7.6,2.9,8.4,6.8l0.1,0.4l-0.4-0.2c-3-1.1-4.6-3.2-4.7-3.3l0,0l0,0l-0.8-1l-0.8,1
		c-3,3.5-7.5,4-9.8,4L9,9.7l-0.3,0L8.7,9.5z M23.3,17.9L23.3,17.9L23.3,17.9C23.3,17.9,23.3,17.9,23.3,17.9c-1.7,2.2-3.8,3.4-6,3.4
		c-2.2,0-4.3-1.2-6-3.4c0,0,0,0,0,0l0,0c0,0,0,0,0,0c-1.3-1.7-2.2-3.8-2.5-5.8l0-0.3l0.3,0c0.1,0,0.2,0,0.3,0
		c2.5,0,6.9-0.5,10.3-3.7L19.8,8L20,8.1c1.1,1,3,2.5,5.7,3.3l0.2,0.1l0,0.2C25.6,13.8,24.7,16,23.3,17.9z"/>
	<path class="st1" d="M23.9,35.2v0.5c0,0.4,0.3,0.8,0.8,0.8h3.2c0.4,0,0.8-0.3,0.8-0.8v-0.5c0-0.4-0.3-0.8-0.8-0.8h-3.2
		C24.2,34.4,23.9,34.7,23.9,35.2z"/>
	<path class="st0" d="M32.9,32.6c-0.5-2.7-2.5-4.9-5.2-5.6l-6.5-1.9h-7.8L6.8,27c-2.7,0.8-4.7,2.9-5.2,5.6l-1.6,8
		C0,40.9,0,41.1,0,41.3c0,0.8,0.3,1.5,0.8,2.1c0.7,0.8,1.6,1.2,2.6,1.2H11h12.6h7.6c1,0,2-0.5,2.6-1.2c0.5-0.6,0.8-1.4,0.8-2.1
		c0-0.2,0-0.4-0.1-0.7l0,0L32.9,32.6z M19.5,27.2l-1,2.4l-0.1,0.2h-2.3l-1.1-2.6H19.5z M3.4,42.7c-0.5,0-0.9-0.3-1-0.5
		C2.2,42,2,41.7,2,41.3c0-0.1,0-0.2,0-0.3v0l1.6-8c0.4-2,1.8-3.5,3.7-4.1l0,0l0,0l0,0l5.5-1.6l1.4,3.5l-2.6,11.8H3.4z M14.1,42.7
		h-0.3l2.4-10.8h2l2.4,10.8H14.1z M32.2,42.2L32.2,42.2c-0.1,0.2-0.5,0.5-1,0.5h-8.3l-2.6-11.8l1.4-3.5l5.5,1.6l0,0l0,0l0,0
		c1.9,0.5,3.4,2.1,3.7,4.1v0l1.6,8l0,0c0,0.1,0,0.2,0,0.3C32.5,41.8,32.3,42,32.2,42.2z"/>
</g>
</svg>
