<svg id="Warstwa_1" data-name="Warstwa 1" xmlns="http://www.w3.org/2000/svg" viewBox="0 0 41.28 41.28"><defs><style>.cls-1{fill:#f6dc00;}</style></defs><path id="Facebook-2" class="cls-1" d="M29.88,10.25H11.4a1.14,1.14,0,0,0-1.15,1.15h0V29.88A1.15,1.15,0,0,0,11.4,31h10V23H18.64V19.84h2.71V17.53a3.78,3.78,0,0,1,4-4.14c.81,0,1.62,0,2.42.12v2.81H26.14c-1.31,0-1.56.62-1.56,1.52v2h3.11L27.29,23H24.58V31h5.3A1.16,1.16,0,0,0,31,29.88h0V11.4a1.15,1.15,0,0,0-1.15-1.15Z"/><path class="cls-1" d="M33.29,40.28v-1H8a6,6,0,0,1-6-6V8A6,6,0,0,1,8,2h25.3a6,6,0,0,1,6,6v25.3a6,6,0,0,1-6,6v2a8,8,0,0,0,8-8V8a8,8,0,0,0-8-8H8A8,8,0,0,0,0,8v25.3a8,8,0,0,0,8,8h25.3Z"/></svg>