<svg id="Warstwa_1" data-name="Warstwa 1" xmlns="http://www.w3.org/2000/svg" viewBox="0 0 41.28 41.28"><defs><style>.cls-1{fill:#f6dc00;}</style></defs><g id="Linkedin-2"><path class="cls-1" d="M10.93,15.41h4.31V29.27H10.93Zm2.16-6.88a2.5,2.5,0,1,1-2.5,2.5h0a2.5,2.5,0,0,1,2.5-2.5"/><path class="cls-1" d="M17.94,15.41h4.13v1.9h.07a4.54,4.54,0,0,1,4.08-2.24c4.36,0,5.16,2.87,5.16,6.6v7.6h-4.3V22.53c0-1.6,0-3.67-2.24-3.67s-2.58,1.74-2.58,3.56v6.85H18Z"/></g><path class="cls-1" d="M33.29,40.28v-1H8a6,6,0,0,1-6-6V8A6,6,0,0,1,8,2h25.3a6,6,0,0,1,6,6v25.3a6,6,0,0,1-6,6v2a8,8,0,0,0,8-8V8a8,8,0,0,0-8-8H8A8,8,0,0,0,0,8v25.3a8,8,0,0,0,8,8h25.3Z"/></svg>