<svg id="Warstwa_1" data-name="Warstwa 1" xmlns="http://www.w3.org/2000/svg" viewBox="0 0 41.28 41.28"><defs><style>.cls-1{fill:#f6dc00;}</style></defs><path class="cls-1" d="M20.88,12.7c2.77,0,3.11,0,4.2.06a5.79,5.79,0,0,1,1.93.36,3.44,3.44,0,0,1,2,2A5.74,5.74,0,0,1,29.34,17c.05,1.09.06,1.42.06,4.2s0,3.1-.06,4.2A5.84,5.84,0,0,1,29,27.35a3.46,3.46,0,0,1-2,2,5.33,5.33,0,0,1-1.93.36c-1.09,0-1.42.06-4.2.06s-3.1,0-4.2-.06a5.33,5.33,0,0,1-1.93-.36,3.46,3.46,0,0,1-2-2,5.58,5.58,0,0,1-.35-1.93c-.06-1.1-.07-1.43-.07-4.2s0-3.11.07-4.2a5.5,5.5,0,0,1,.35-1.93,3.44,3.44,0,0,1,2-2,5.79,5.79,0,0,1,1.93-.36c1.1,0,1.43-.06,4.2-.06m0-1.87c-2.82,0-3.17,0-4.28.06a7.46,7.46,0,0,0-2.52.48A5.3,5.3,0,0,0,11,14.43,7.73,7.73,0,0,0,10.53,17c0,1.11-.06,1.46-.06,4.28s0,3.18.06,4.29A7.78,7.78,0,0,0,11,28a5.3,5.3,0,0,0,3.06,3.06,7.72,7.72,0,0,0,2.52.48c1.11.05,1.46.06,4.28.06s3.18,0,4.28-.06a7.77,7.77,0,0,0,2.53-.48,5.26,5.26,0,0,0,3-3.06,7.52,7.52,0,0,0,.49-2.52c.05-1.11.06-1.47.06-4.29s0-3.17-.06-4.28a7.47,7.47,0,0,0-.49-2.52,5.26,5.26,0,0,0-3-3.06,7.52,7.52,0,0,0-2.53-.48C24.06,10.84,23.7,10.83,20.88,10.83Z"/><path class="cls-1" d="M20.88,15.88a5.34,5.34,0,1,0,5.34,5.33h0A5.34,5.34,0,0,0,20.88,15.88Zm0,8.79a3.46,3.46,0,1,1,3.46-3.46h0a3.46,3.46,0,0,1-3.46,3.46Z"/><circle class="cls-1" cx="26.43" cy="15.67" r="1.25"/><path class="cls-1" d="M33.29,40.28v-1H8a6,6,0,0,1-6-6V8A6,6,0,0,1,8,2h25.3a6,6,0,0,1,6,6v25.3a6,6,0,0,1-6,6v2a8,8,0,0,0,8-8V8a8,8,0,0,0-8-8H8A8,8,0,0,0,0,8v25.3a8,8,0,0,0,8,8h25.3Z"/></svg>