<svg id="Warstwa_1" data-name="Warstwa 1" xmlns="http://www.w3.org/2000/svg" viewBox="0 0 41.28 41.28"><defs><style>.cls-1{fill:#f6dc00;}</style></defs><path id="Twitter-2" class="cls-1" d="M31.57,15a8.74,8.74,0,0,1-2.45.67A4.25,4.25,0,0,0,31,13.3a8.64,8.64,0,0,1-2.71,1,4.26,4.26,0,0,0-7.37,2.92,4.58,4.58,0,0,0,.11,1,12.13,12.13,0,0,1-8.79-4.43,4.26,4.26,0,0,0,1.31,5.68,4.38,4.38,0,0,1-1.94-.54V19A4.26,4.26,0,0,0,15,23.17a4.29,4.29,0,0,1-1.92.07,4.26,4.26,0,0,0,4,3A8.59,8.59,0,0,1,11.79,28a8.72,8.72,0,0,1-1-.06A12.14,12.14,0,0,0,29.45,17.75v-.56A8.69,8.69,0,0,0,31.57,15Z"/><path class="cls-1" d="M33.29,40.28v-1H8a6,6,0,0,1-6-6V8A6,6,0,0,1,8,2h25.3a6,6,0,0,1,6,6v25.3a6,6,0,0,1-6,6v2a8,8,0,0,0,8-8V8a8,8,0,0,0-8-8H8A8,8,0,0,0,0,8v25.3a8,8,0,0,0,8,8h25.3Z"/></svg>